<svg width="134" height="160" viewBox="0 0 134 160" fill="none" xmlns="http://www.w3.org/2000/svg">
<path d="M108.5 114C108.5 109.306 104.694 105.5 100 105.5C98.9347 105.5 97.9152 105.696 96.9755 106.054C95.7774 102.812 92.6586 100.5 89 100.5C87.5974 100.5 86.2742 100.84 85.1081 101.441C84.6182 99.8873 83.6939 98.5261 82.4775 97.5C80.9982 96.2521 79.0869 95.5 77 95.5C76.6987 95.5 75.7079 95.8623 74.8445 96.1779C74.2413 96.3985 73.7003 96.5963 73.5 96.6319V80C73.5 77.2827 72.4845 74.556 70.5 73L70.4407 72.9535C69.0263 71.8442 67.95 71 66 71C64.2198 71 63.5674 71.0473 62.2019 71.9827C59.9666 73.5141 58.5 76.0858 58.5 79V97.5V111.293L52.4775 100.5C50.9982 99.2521 49.0869 98.5 47 98.5C42.3056 98.5 38.5 102.306 38.5 107C38.8333 110.333 44.2 128.3 51 135.5C57.8 142.7 57.8333 149.333 58.5 156.5H100.5L108.5 114Z" fill="white"/>
<path d="M90.5 39.5H42.5C37.8597 39.5 33.9575 42.6606 32.829 46.9465C32.6143 47.7617 32.5 48.6175 32.5 49.5V69V87.5C32.5 89.3119 32.9819 91.0113 33.8245 92.4769C35.5502 95.4786 38.7891 97.5 42.5 97.5H58.5V79C58.5 76.0858 59.9666 73.5141 62.2019 71.9827C59.3781 70.2153 57.5 67.077 57.5 63.5C57.5 57.9772 61.9772 53.5 67.5 53.5C73.0229 53.5 77.5 57.9772 77.5 63.5C77.5 67.3076 73.6315 71.3109 70.5 73C72.4845 74.556 73.5 77.2827 73.5 80V96.6319C73.7003 96.5963 74.2413 96.3985 74.8445 96.1779C75.7079 95.8623 76.6987 95.5 77 95.5C79.0869 95.5 80.9982 96.2521 82.4775 97.5H90.5C94.4594 97.5 97.8813 95.1989 99.5015 91.8611C100.141 90.5431 100.5 89.0635 100.5 87.5V69V49.5C100.5 48.7851 100.425 48.0877 100.282 47.4153C99.3234 42.8931 95.3079 39.5 90.5 39.5Z" fill="#787FDC"/>
<path d="M67.5 53.5C61.9772 53.5 57.5 57.9772 57.5 63.5C57.5 67.077 59.3781 70.2153 62.2019 71.9827C63.5674 71.0473 64.2198 71 66 71C67.95 71 69.0263 71.8442 70.4407 72.9535L70.5 73C73.6315 71.3109 77.5 67.3076 77.5 63.5C77.5 57.9772 73.0229 53.5 67.5 53.5Z" fill="#FFEB53"/>
<path d="M108.5 114L111.94 114.647L112 114.327V114H108.5ZM38.5 107H35V107.175L35.0174 107.348L38.5 107ZM100.5 156.5V160H103.403L103.94 157.147L100.5 156.5ZM58.5 156.5L55.015 156.824L55.3105 160H58.5V156.5ZM25 44.5L21.9159 46.1549L22.5918 47.4143L23.956 47.8407L25 44.5ZM110 44.5L111.006 47.8524L112.373 47.4422L113.063 46.1929L110 44.5ZM110 96.5L113.086 94.8492L112.518 93.7859L111.415 93.2986L110 96.5ZM26 95.5L24.7386 92.2352L23.4835 92.7201L22.8764 93.921L26 95.5ZM62.2019 71.9827L64.18 74.8701L62.2019 71.9827ZM115.937 107.599L117.536 110.713V110.713L115.937 107.599ZM23.4877 69L19.992 68.8279L23.4877 69ZM18.8145 32.9725L16.9519 30.0093L18.8145 32.9725ZM32.829 46.9465L36.2136 47.8378L32.829 46.9465ZM52.4775 100.5L55.5339 98.7945L55.2226 98.2367L54.7343 97.8247L52.4775 100.5ZM58.5 111.293L55.4436 112.998C56.2202 114.39 57.8388 115.081 59.3811 114.68C60.9234 114.279 62 112.887 62 111.293H58.5ZM70 108C70 109.933 71.567 111.5 73.5 111.5C75.433 111.5 77 109.933 77 108H73.5H70ZM81.5003 109.956C81.4759 111.889 83.0229 113.475 84.9558 113.5C86.8886 113.524 88.4753 111.977 88.4997 110.044L85 110L81.5003 109.956ZM93.5 113.511C93.5064 115.444 95.0785 117.006 97.0115 117C98.9445 116.994 100.506 115.421 100.5 113.489L97 113.5L93.5 113.511ZM70.4407 72.9535L72.6007 70.1995L72.6007 70.1995L70.4407 72.9535ZM74.8445 96.1779L76.0463 99.4651L76.0463 99.4651L74.8445 96.1779ZM42.5 39.5V43H90.5V39.5V36H42.5V39.5ZM13.5 34.5V31C9.91015 31 7 28.0899 7 24.5H3.5H0C0 31.9558 6.04416 38 13.5 38V34.5ZM3.5 24.5H7C7 20.9101 9.91015 18 13.5 18V14.5V11C6.04416 11 0 17.0442 0 24.5H3.5ZM13.5 14.5V18C17.0899 18 20 20.9101 20 24.5H23.5H27C27 17.0442 20.9558 11 13.5 11V14.5ZM13.5 78.5V75C9.91015 75 7 72.0899 7 68.5H3.5H0C0 75.9558 6.04416 82 13.5 82V78.5ZM3.5 68.5H7C7 64.9101 9.91015 62 13.5 62V58.5V55C6.04416 55 0 61.0442 0 68.5H3.5ZM13.5 58.5V62C17.0899 62 20 64.9101 20 68.5H23.5H27C27 61.0442 20.9558 55 13.5 55V58.5ZM23.5 117.5H20C20 121.09 17.0899 124 13.5 124V127.5V131C20.9558 131 27 124.956 27 117.5H23.5ZM13.5 127.5V124C9.91015 124 7 121.09 7 117.5H3.5H0C0 124.956 6.04416 131 13.5 131V127.5ZM3.5 117.5H7C7 113.91 9.91015 111 13.5 111V107.5V104C6.04416 104 0 110.044 0 117.5H3.5ZM42.5 27.5H46C46 16.1782 55.1782 7 66.5 7V3.5V0C51.3122 0 39 12.3122 39 27.5H42.5ZM66.5 3.5V7C77.8218 7 87 16.1782 87 27.5H90.5H94C94 12.3122 81.6878 0 66.5 0V3.5ZM130.5 23.5H127C127 27.0899 124.09 30 120.5 30V33.5V37C127.956 37 134 30.9558 134 23.5H130.5ZM110.5 23.5H114C114 19.9101 116.91 17 120.5 17V13.5V10C113.044 10 107 16.0442 107 23.5H110.5ZM120.5 13.5V17C124.09 17 127 19.9101 127 23.5H130.5H134C134 16.0442 127.956 10 120.5 10V13.5ZM57.5 63.5H61C61 59.9101 63.9101 57 67.5 57V53.5V50C60.0442 50 54 56.0442 54 63.5H57.5ZM67.5 53.5V57C71.0899 57 74 59.9101 74 63.5H77.5H81C81 56.0442 74.9558 50 67.5 50V53.5ZM100 105.5V109C102.761 109 105 111.239 105 114H108.5H112C112 107.373 106.627 102 100 102V105.5ZM38.5 107H42C42 104.239 44.2386 102 47 102V98.5V95C40.3726 95 35 100.373 35 107H38.5ZM130.5 67.5H127C127 71.0899 124.09 74 120.5 74V77.5V81C127.956 81 134 74.9558 134 67.5H130.5ZM110.5 67.5H114C114 63.9101 116.91 61 120.5 61V57.5V54C113.044 54 107 60.0442 107 67.5H110.5ZM120.5 57.5V61C124.09 61 127 63.9101 127 67.5H130.5H134C134 60.0442 127.956 54 120.5 54V57.5ZM130.5 116.5H127C127 120.09 124.09 123 120.5 123V126.5V130C127.956 130 134 123.956 134 116.5H130.5ZM120.5 126.5V123C116.91 123 114 120.09 114 116.5H110.5H107C107 123.956 113.044 130 120.5 130V126.5ZM120.5 106.5V110C124.09 110 127 112.91 127 116.5H130.5H134C134 109.044 127.956 103 120.5 103V106.5ZM100.5 156.5V153H58.5V156.5V160H100.5V156.5ZM42.5 39.5H46V27.5H42.5H39V39.5H42.5ZM90.5 27.5H87V39.5H90.5H94V27.5H90.5ZM58.5 79H62C62 77.2889 62.8564 75.7769 64.18 74.8701L62.2019 71.9827L60.2238 69.0953C57.0767 71.2513 55 74.8827 55 79H58.5ZM62.2019 71.9827L64.18 74.8701C64.4311 74.6981 64.5719 74.6207 64.6457 74.585C64.7035 74.5571 64.7227 74.5532 64.7346 74.5504C64.7598 74.5446 64.8413 74.5281 65.0475 74.5163C65.2689 74.5036 65.5523 74.5 66 74.5V71V67.5C65.1755 67.5 64.166 67.497 63.1563 67.7307C62.0214 67.9933 61.1092 68.4887 60.2238 69.0953L62.2019 71.9827ZM62.2019 71.9827L64.0588 69.0159C62.2142 67.8614 61 65.8212 61 63.5H57.5H54C54 68.3328 56.5419 72.5692 60.345 74.9495L62.2019 71.9827ZM70.5 73L68.3404 75.7543C69.2439 76.4628 70 78.0194 70 80H73.5H77C77 76.546 75.725 72.6493 72.6596 70.2457L70.5 73ZM77.5 63.5H74C74 64.2742 73.563 65.4644 72.4478 66.8499C71.3721 68.1863 69.9806 69.3035 68.8384 69.9195L70.5 73L72.1616 76.0805C74.151 75.0074 76.2594 73.2784 77.9009 71.2389C79.5028 69.2486 81 66.5333 81 63.5H77.5ZM33.8245 92.4769L32.5631 89.2121L24.7386 92.2352L26 95.5L27.2614 98.7648L35.0859 95.7417L33.8245 92.4769ZM42.5 97.5V94C40.0923 94 37.9858 92.6927 36.8588 90.7325L33.8245 92.4769L30.7902 94.2213C33.1147 98.2646 37.4858 101 42.5 101V97.5ZM33.8245 92.4769L36.8588 90.7325C36.3132 89.7834 36 88.6836 36 87.5H32.5H29C29 89.9402 29.6506 92.2391 30.7902 94.2213L33.8245 92.4769ZM26 95.5L22.8764 93.921L15.9522 107.618L19.0757 109.197L22.1993 110.777L29.1236 97.079L26 95.5ZM13.5 107.5V111C14.8468 111 16.0882 111.406 17.1218 112.101L19.0757 109.197L21.0297 106.294C18.8773 104.845 16.2821 104 13.5 104V107.5ZM19.0757 109.197L17.1218 112.101C18.8652 113.274 20 115.255 20 117.5H23.5H27C27 112.828 24.6236 108.712 21.0297 106.294L19.0757 109.197ZM99.5015 91.8611L98.0869 95.0625L108.585 99.7014L110 96.5L111.415 93.2986L100.916 88.6597L99.5015 91.8611ZM100.5 87.5H97C97 88.5226 96.7663 89.4807 96.3528 90.3328L99.5015 91.8611L102.65 93.3894C103.516 91.6055 104 89.6043 104 87.5H100.5ZM99.5015 91.8611L96.3528 90.3328C95.2957 92.5107 93.0684 94 90.5 94V97.5V101C95.8504 101 100.467 97.8872 102.65 93.3894L99.5015 91.8611ZM110 96.5L106.914 98.1508L112.851 109.25L115.937 107.599L119.023 105.949L113.086 94.8492L110 96.5ZM110.5 116.5H114C114 113.984 115.429 111.795 117.536 110.713L115.937 107.599L114.338 104.486C109.988 106.721 107 111.258 107 116.5H110.5ZM115.937 107.599L117.536 110.713C118.421 110.258 119.425 110 120.5 110V106.5V103C118.287 103 116.189 103.535 114.338 104.486L115.937 107.599ZM23.5 68.5H20C20 68.6102 19.9973 68.7195 19.992 68.8279L23.4877 69L26.9835 69.1721C26.9945 68.9492 27 68.7251 27 68.5H23.5ZM23.4877 69L19.992 68.8279C19.8228 72.2639 16.9798 75 13.5 75V78.5V82C20.7305 82 26.6316 76.3173 26.9835 69.1721L23.4877 69ZM120.5 77.5V74C117.245 74 114.543 71.6036 114.073 68.4794L110.612 69L107.151 69.5206C108.128 76.0189 113.729 81 120.5 81V77.5ZM110.612 69L114.073 68.4794C114.025 68.1618 114 67.835 114 67.5H110.5H107C107 68.1846 107.051 68.8596 107.151 69.5206L110.612 69ZM18.8145 32.9725L15.7304 34.6273L21.9159 46.1549L25 44.5L28.0841 42.8451L21.8986 31.3176L18.8145 32.9725ZM23.5 24.5H20C20 26.8167 18.7905 28.8535 16.9519 30.0093L18.8145 32.9725L20.6771 35.9357C24.4679 33.5528 27 29.3234 27 24.5H23.5ZM18.8145 32.9725L16.9519 30.0093C15.9538 30.6366 14.7747 31 13.5 31V34.5V38C16.1309 38 18.5959 37.2439 20.6771 35.9357L18.8145 32.9725ZM110 44.5L113.063 46.1929L119.595 34.3744L116.531 32.6815L113.468 30.9886L106.937 42.8071L110 44.5ZM120.5 33.5V30C119.577 30 118.708 29.8097 117.922 29.4695L116.531 32.6815L115.141 35.8935C116.788 36.6066 118.603 37 120.5 37V33.5ZM116.531 32.6815L117.922 29.4695C115.608 28.468 114 26.1678 114 23.5H110.5H107C107 29.0576 110.358 33.8231 115.141 35.8935L116.531 32.6815ZM25 44.5L23.956 47.8407L31.785 50.2872L32.829 46.9465L33.8729 43.6059L26.044 41.1593L25 44.5ZM42.5 39.5V36C36.2307 36 30.9677 40.2703 29.4443 46.0553L32.829 46.9465L36.2136 47.8378C36.9474 45.0509 39.4886 43 42.5 43V39.5ZM32.829 46.9465L29.4443 46.0553C29.1538 47.1588 29 48.3141 29 49.5H32.5H36C36 48.9209 36.0749 48.3646 36.2136 47.8378L32.829 46.9465ZM100.282 47.4153L101.288 50.7677L111.006 47.8524L110 44.5L108.994 41.1476L99.2767 44.0629L100.282 47.4153ZM90.5 39.5V43C93.621 43 96.2354 45.2031 96.8585 48.1414L100.282 47.4153L103.706 46.6892C102.411 40.5831 96.9949 36 90.5 36V39.5ZM100.282 47.4153L96.8585 48.1414C96.9508 48.5765 97 49.0306 97 49.5H100.5H104C104 48.5396 103.899 47.5989 103.706 46.6892L100.282 47.4153ZM100.5 69V72.5H110.612V69V65.5H100.5V69ZM100.5 49.5H97V69H100.5H104V49.5H100.5ZM100.5 69H97V87.5H100.5H104V69H100.5ZM23.4877 69V72.5H32.5V69V65.5H23.4877V69ZM32.5 87.5H36V69H32.5H29V87.5H32.5ZM32.5 69H36V49.5H32.5H29V69H32.5ZM38.5 107L35.0174 107.348C35.1359 108.533 35.62 110.557 36.2757 112.821C36.9585 115.178 37.9045 118.056 39.0582 121.056C41.309 126.91 44.5493 133.767 48.4555 137.903L51 135.5L53.5445 133.097C50.6507 130.033 47.8077 124.307 45.5918 118.544C44.5122 115.736 43.629 113.047 42.9993 110.873C42.3425 108.606 42.0308 107.133 41.9826 106.652L38.5 107ZM51 135.5L48.4555 137.903C54.3065 144.098 54.3319 149.481 55.015 156.824L58.5 156.5L61.985 156.176C61.3347 149.186 61.2935 141.302 53.5445 133.097L51 135.5ZM47 98.5V102C48.2305 102 49.3491 102.44 50.2208 103.175L52.4775 100.5L54.7343 97.8247C52.6472 96.0642 49.9434 95 47 95V98.5ZM52.4775 100.5L49.4211 102.205L55.4436 112.998L58.5 111.293L61.5564 109.588L55.5339 98.7945L52.4775 100.5ZM85.1081 101.441L86.7129 104.552C87.3944 104.2 88.1687 104 89 104V100.5V97C87.0261 97 85.154 97.4793 83.5034 98.3309L85.1081 101.441ZM85.1081 101.441L81.6084 101.397L81.5003 109.956L85 110L88.4997 110.044L88.6079 101.486L85.1081 101.441ZM96.9755 106.054L98.2212 109.325C98.7692 109.116 99.367 109 100 109V105.5V102C98.5024 102 97.0612 102.276 95.7299 102.783L96.9755 106.054ZM89 100.5V104C91.1466 104 92.9858 105.354 93.6925 107.267L96.9755 106.054L100.259 104.841C98.569 100.269 94.1707 97 89 97V100.5ZM96.9755 106.054L93.4756 106.065L93.5 113.511L97 113.5L100.5 113.489L100.476 106.042L96.9755 106.054ZM108.5 114L105.06 113.353L97.0604 155.853L100.5 156.5L103.94 157.147L111.94 114.647L108.5 114ZM73.5 80H70V96.6319H73.5H77V80H73.5ZM58.5 111.293H62V97.5H58.5H55V111.293H58.5ZM58.5 97.5H62V79H58.5H55V97.5H58.5ZM58.5 97.5V94H42.5V97.5V101H58.5V97.5ZM90.5 97.5V94H82.4775V97.5V101H90.5V97.5ZM77 95.5V99C78.2305 99 79.3491 99.44 80.2208 100.175L82.4775 97.5L84.7343 94.8247C82.6472 93.0642 79.9434 92 77 92V95.5ZM82.4775 97.5L80.2208 100.175C80.9409 100.783 81.4837 101.585 81.7701 102.494L85.1081 101.441L88.4462 100.389C87.7527 98.1892 86.4468 96.2693 84.7343 94.8247L82.4775 97.5ZM66 71V74.5C66.4078 74.5 66.6237 74.5735 66.8382 74.6823C67.1652 74.8481 67.5137 75.1059 68.2808 75.7075L70.4407 72.9535L72.6007 70.1995C71.2047 69.1046 69.2728 67.5 66 67.5V71ZM70.4407 72.9535L68.2807 75.7075L68.34 75.7539L70.5 73L72.66 70.2461L72.6008 70.1996L70.4407 72.9535ZM73.5 96.6319L74.1134 100.078C74.5359 100.003 74.9934 99.8414 75.1647 99.7822C75.4359 99.6884 75.7542 99.5719 76.0463 99.4651L74.8445 96.1779L73.6426 92.8908C73.3316 93.0045 73.0778 93.0972 72.8776 93.1664C72.7783 93.2007 72.7174 93.2204 72.6862 93.23C72.6714 93.2345 72.6776 93.2323 72.6994 93.2266C72.7144 93.2226 72.7838 93.2044 72.8866 93.1861L73.5 96.6319ZM74.8445 96.1779L76.0463 99.4651C76.4923 99.3021 76.9007 99.1531 77.2317 99.0437C77.3979 98.9887 77.4975 98.9596 77.5429 98.9477C77.5651 98.9419 77.5415 98.9489 77.4851 98.9592C77.4539 98.9649 77.2668 99 77 99V95.5V92C76.4287 92 75.9206 92.1366 75.7721 92.1754C75.52 92.2413 75.2614 92.3224 75.0344 92.3975C74.5787 92.5481 74.06 92.7382 73.6426 92.8908L74.8445 96.1779ZM70.4407 72.9535L68.2808 75.7075C68.2996 75.7223 68.3204 75.7386 68.3404 75.7543L70.5 73L72.6596 70.2457C72.6399 70.2303 72.6212 70.2156 72.6007 70.1995L70.4407 72.9535ZM73.5 96.6319H70V108H73.5H77V96.6319H73.5Z" fill="#1B1725"/>
</svg>
