<svg width="36" height="28" viewBox="0 0 36 28" fill="none" xmlns="http://www.w3.org/2000/svg">
<path d="M24 16.0001C24 19.3138 21.3137 22.0001 18 22.0001C14.6863 22.0001 12 19.3138 12 16.0001C12 12.6864 14.6863 10.0001 18 10.0001C21.3137 10.0001 24 12.6864 24 16.0001Z" stroke="#1B1725" stroke-width="3"/>
<path d="M33.159 16.5009C30.2167 22.4609 24.5313 26.5 18 26.5C11.4687 26.5 5.78321 22.4609 2.84167 16.5001" stroke="#1B1725" stroke-width="3" stroke-linecap="round" stroke-linejoin="round"/>
<path d="M33.1591 16.4992C30.2167 10.5393 24.5313 6.50017 18.0001 6.50017M18.0001 6.50017C11.4687 6.50017 5.78326 10.5393 2.84172 16.5001M18.0001 6.50017V1.50006M30.5 12.464L34 9.00023M25.125 8.21904L27.2633 4.00012M5.50001 12.464L2 9.00023M10.875 8.21904L8.73688 4.00012" stroke="#1B1725" stroke-width="3" stroke-linecap="round" stroke-linejoin="round"/>
</svg>
