<svg width="167" height="321" viewBox="0 0 167 321" fill="none" xmlns="http://www.w3.org/2000/svg">
<path d="M166.765 206.087C165.286 166.718 132.902 135.25 93.1445 135.25C52.4466 135.25 19.4547 168.215 19.4479 208.882C13.9569 219.449 0.78622 246.277 0.78622 246.277C-0.225849 248.297 -0.262007 250.667 0.684616 252.72C1.63088 254.775 3.45795 256.286 5.6495 256.834L17.6931 259.845C17.6931 259.845 23.8284 287.527 25.2281 293.95C27.3445 303.677 30.4928 305.785 39.7001 305.785C48.9143 305.785 59.8041 302.803 59.8041 302.803V320.25H138.761V292.637C138.761 282.638 141.515 270.097 149.29 260.719C164.925 241.863 167.965 221.692 166.765 206.087Z" fill="white"/>
<path d="M72.2167 94.0716V93.4416C72.2167 88.7605 69.2962 84.6801 65.6397 81.7596C60.8672 77.9535 57.3958 72.758 55.7059 66.8922C54.0161 61.0264 54.1914 54.7803 56.2075 49.0185C58.2237 43.2567 61.9811 38.2641 66.9596 34.7317C71.9381 31.1993 77.8915 29.3017 83.9959 29.3017C90.1003 29.3017 96.0537 31.1993 101.032 34.7317C106.011 38.2641 109.768 43.2567 111.784 49.0185C113.8 54.7803 113.976 61.0264 112.286 66.8922C110.596 72.758 107.125 77.9535 102.352 81.7596C98.6897 84.686 95.7692 88.7605 95.7692 93.4416V94.0716M72.2167 94.0716V105.848C72.2167 107.409 72.8371 108.907 73.9413 110.011C75.0456 111.116 76.5432 111.736 78.1049 111.736H89.8811C91.4427 111.736 92.9403 111.116 94.0446 110.011C95.1488 108.907 95.7692 107.409 95.7692 105.848V94.0716M72.2167 94.0716H95.7692M131.098 58.743H136.986M36.8881 58.743H31M83.993 11.6381V5.75M117.302 25.4339L121.465 21.271M50.6898 25.4339L46.521 21.271M83.993 76.4073V64.6311" stroke="white" stroke-width="10" stroke-linecap="round" stroke-linejoin="round"/>
</svg>
