<svg width="54" height="77" viewBox="0 0 54 77" fill="none" xmlns="http://www.w3.org/2000/svg">
<path d="M31.904 76.93C28.724 76.93 25.714 76.12 23.044 74.53C19.994 74.81 16.6841 74.58 13.2041 73.8C7.04405 72.42 2.66406 68.77 0.884059 63.5C-1.57594 56.23 1.15405 47.14 8.37405 38.54C11.144 35.25 14.1441 32.42 17.0541 29.69C22.4441 24.63 27.1041 20.26 27.1041 15.48C27.1041 12.03 24.7241 8.13 19.8241 3.55L23.1441 0C29.1541 5.62 31.9541 10.54 31.9641 15.47C31.9641 22.35 26.3441 27.63 20.3841 33.23C17.5741 35.86 14.6741 38.58 12.0941 41.66C6.08405 48.82 3.61406 56.39 5.49406 61.93C6.72406 65.58 9.76405 68.04 14.264 69.04C15.404 69.3 16.5241 69.48 17.6141 69.6C13.4241 64.08 12.1941 56.74 14.6741 51.32C16.7341 46.8 21.0041 44.31 26.6841 44.31C32.3641 44.31 37.2741 46.92 39.4741 51.46C41.8241 56.33 40.914 62.55 37.154 67.3C35.594 69.27 33.6841 70.85 31.4941 72.04C32.9541 72.08 34.5541 71.9 36.3241 71.38C44.1141 69.09 48.2141 64.44 48.2041 57.92C48.1841 48.94 40.1041 38.11 31.5741 35.65L32.9241 30.98C43.6241 34.07 53.0341 46.65 53.0641 57.91C53.0741 62.99 51.0941 72.11 37.6941 76.04C35.7341 76.62 33.7941 76.9 31.9241 76.9L31.904 76.93ZM26.6741 49.2C22.8941 49.2 20.3441 50.6 19.0841 53.37C17.2741 57.33 18.584 63.4 22.124 67.49C22.654 68.11 23.3541 68.8 24.2241 69.47C28.0241 68.79 31.1641 67.05 33.3341 64.32C35.9141 61.07 36.6141 56.76 35.0941 53.61C33.7241 50.77 30.7341 49.21 26.6841 49.21L26.6741 49.2Z" fill="#787FDC"/>
</svg>
