<svg width="142" height="146" viewBox="0 0 142 146" fill="none" xmlns="http://www.w3.org/2000/svg">
<path d="M100.5 46V53C100.667 54 101.8 56 105 56C108.2 56 109.333 54 109.5 53V46" stroke="#1B1725" stroke-width="3" stroke-linejoin="round"/>
<circle cx="104.5" cy="35.5" r="11" stroke="#1B1725" stroke-width="3"/>
<path d="M85.5 24.5L89 28" stroke="#1B1725" stroke-width="3" stroke-linecap="round" stroke-linejoin="round"/>
<path d="M85 48.5L88.5 45" stroke="#1B1725" stroke-width="3" stroke-linecap="round" stroke-linejoin="round"/>
<path d="M81 36.4749H85.9497" stroke="#1B1725" stroke-width="3" stroke-linecap="round" stroke-linejoin="round"/>
<path d="M124.5 25L121 28.5" stroke="#1B1725" stroke-width="3" stroke-linecap="round" stroke-linejoin="round"/>
<path d="M125 49L121.5 45.5" stroke="#1B1725" stroke-width="3" stroke-linecap="round" stroke-linejoin="round"/>
<path d="M129 36.9749H124.05" stroke="#1B1725" stroke-width="3" stroke-linecap="round" stroke-linejoin="round"/>
<path d="M140.387 34.5173L140.388 34.5466L140.391 34.5758C140.95 41.8709 139.537 51.2732 132.254 60.083L132.254 60.0832C128.191 64.999 126.803 71.4813 126.803 76.5666V88.5H91.5068V81.5124V79.5449L89.6099 80.0659L89.6098 80.0659L89.6095 80.066L89.6081 80.0663L89.5992 80.0688L89.5592 80.0795C89.523 80.0892 89.4677 80.1038 89.395 80.1227C89.2494 80.1604 89.034 80.2149 88.7606 80.2807C88.2132 80.4125 87.436 80.5887 86.5229 80.7649C84.6814 81.1204 82.3511 81.4631 80.2557 81.4631C78.0567 81.4631 77.0247 81.1886 76.3888 80.6839C75.7556 80.1813 75.2039 79.1999 74.7023 76.8876L74.7022 76.8871C74.3621 75.3219 73.4478 71.1711 72.6192 67.4149C72.2048 65.5361 71.8116 63.7549 71.522 62.4435L71.1756 60.8751L71.0799 60.4423L71.0549 60.329L71.0485 60.3001L71.0469 60.2928L71.0465 60.2909L71.0464 60.2905C71.0464 60.2903 71.0463 60.2903 69.5817 60.6139L71.0463 60.2903L70.8462 59.3846L69.9466 59.159L64.1054 57.6941C63.4834 57.538 62.9645 57.1081 62.6953 56.5217L62.6949 56.5207C62.4252 55.9342 62.4362 55.2581 62.7232 54.6836L62.7232 54.6837L62.7286 54.6726L61.3813 54.0132C62.7286 54.6726 62.7286 54.6726 62.7287 54.6725L62.7289 54.672L62.7298 54.6703L62.7332 54.6632L62.7469 54.6352L62.8008 54.5252L63.0079 54.1026C63.1876 53.736 63.4474 53.2065 63.7674 52.5549C64.4076 51.2517 65.2888 49.4607 66.2531 47.5093C68.1841 43.6017 70.4407 39.0665 71.7647 36.5109L71.9327 36.1865L71.9328 35.8211C71.936 16.8625 87.2698 1.5 106.178 1.5C124.648 1.5 139.7 16.1641 140.387 34.5173Z" stroke="#1B1725" stroke-width="3"/>
<path d="M41.5 102V109C41.3333 110 40.2 112 37 112C33.8 112 32.6667 110 32.5 109V102" stroke="#1B1725" stroke-width="3" stroke-linejoin="round"/>
<circle cx="12.5" cy="12.5" r="11" transform="matrix(-1 0 0 1 50 79)" stroke="#1B1725" stroke-width="3"/>
<path d="M56.5 80.5L53 84" stroke="#1B1725" stroke-width="3" stroke-linecap="round" stroke-linejoin="round"/>
<path d="M57 104.5L53.5 101" stroke="#1B1725" stroke-width="3" stroke-linecap="round" stroke-linejoin="round"/>
<path d="M61 92.4749H56.0503" stroke="#1B1725" stroke-width="3" stroke-linecap="round" stroke-linejoin="round"/>
<path d="M17.5 81L21 84.5" stroke="#1B1725" stroke-width="3" stroke-linecap="round" stroke-linejoin="round"/>
<path d="M17 105L20.5 101.5" stroke="#1B1725" stroke-width="3" stroke-linecap="round" stroke-linejoin="round"/>
<path d="M13 92.9749H17.9497" stroke="#1B1725" stroke-width="3" stroke-linecap="round" stroke-linejoin="round"/>
<path d="M1.61282 90.5173L1.61172 90.5466L1.60948 90.5758C1.05046 97.8709 2.46251 107.273 9.74597 116.083L9.7461 116.083C13.809 120.999 15.1966 127.481 15.1966 132.567V144.5H50.4932V137.512V135.545L52.3901 136.066L52.3902 136.066L52.3905 136.066L52.3919 136.066L52.4008 136.069L52.4408 136.08C52.477 136.089 52.5323 136.104 52.605 136.123C52.7506 136.16 52.966 136.215 53.2394 136.281C53.7868 136.412 54.564 136.589 55.4771 136.765C57.3186 137.12 59.6489 137.463 61.7443 137.463C63.9433 137.463 64.9753 137.189 65.6112 136.684C66.2444 136.181 66.7961 135.2 67.2977 132.888L67.2978 132.887C67.6379 131.322 68.5522 127.171 69.3808 123.415C69.7952 121.536 70.1884 119.755 70.478 118.444L70.8244 116.875L70.9201 116.442L70.9451 116.329L70.9515 116.3L70.9531 116.293L70.9535 116.291L70.9536 116.29C70.9536 116.29 70.9537 116.29 72.4183 116.614L70.9537 116.29L71.1538 115.385L72.0534 115.159L77.8946 113.694C78.5166 113.538 79.0355 113.108 79.3047 112.522L79.3051 112.521C79.5748 111.934 79.5638 111.258 79.2768 110.684L79.2768 110.684L79.2714 110.673L80.6187 110.013C79.2714 110.673 79.2714 110.673 79.2713 110.672L79.2711 110.672L79.2702 110.67L79.2668 110.663L79.2531 110.635L79.1992 110.525L78.9921 110.103C78.8124 109.736 78.5526 109.206 78.2326 108.555C77.5924 107.252 76.7112 105.461 75.7469 103.509C73.8159 99.6017 71.5593 95.0665 70.2353 92.5109L70.0673 92.1865L70.0672 91.8211C70.064 72.8625 54.7302 57.5 35.8221 57.5C17.3518 57.5 2.30018 72.1641 1.61282 90.5173Z" stroke="#1B1725" stroke-width="3"/>
<path d="M105.5 102.5V129H83.5M83.5 129L89 124M83.5 129L89 134" stroke="#1B1725" stroke-width="3" stroke-linejoin="round"/>
<path d="M30 48.5L30 22L52 22M52 22L46.5 27M52 22L46.5 17" stroke="#1B1725" stroke-width="3" stroke-linejoin="round"/>
</svg>
