<svg width="148" height="165" viewBox="0 0 148 165" fill="none" xmlns="http://www.w3.org/2000/svg">
<path d="M101.816 0.463172C110.887 -1.00217 121.488 0.87584 132.861 8.01688C145.118 15.713 148.534 29.2561 147.806 41.3782C147.439 47.4816 146.026 53.4239 144.027 58.4661C142.054 63.4438 139.395 67.8335 136.341 70.5823C133.06 73.5352 131.241 77.6053 130.36 81.7249C129.477 85.8541 129.603 89.7411 129.955 91.9231L130.609 95.9808H90.9999V84.4808H83.4999C80.7838 84.4808 78.9642 82.8094 77.912 81.2044C76.887 79.641 76.269 77.7142 75.8709 75.9309C75.2562 73.1769 75.0229 70.0893 74.9852 67.5589C73.2409 66.5591 71.2045 65.2387 69.3934 63.7405C68.121 62.6879 66.8491 61.4588 65.868 60.1038C64.9161 58.7891 63.9999 57.0265 63.9999 54.9808C63.9999 53.3578 64.4821 51.6441 65.0389 50.1448C65.6193 48.5823 66.3982 46.9494 67.2225 45.3997C68.625 42.763 70.2537 40.1939 71.5213 38.3479C71.6293 35.5197 72.1377 31.4867 73.326 27.1761C74.6814 22.2596 76.9903 16.7349 80.8329 12.2141C85.5721 6.63852 92.7968 1.92028 101.816 0.463172ZM31.5994 58.8499V31.3499C31.5994 29.4169 33.1665 27.8499 35.0994 27.8499H52.4637L44.8319 17.9925C43.6486 16.464 43.9284 14.2656 45.4569 13.0823C46.9853 11.899 49.1837 12.1789 50.367 13.7073L63.9998 31.3167L50.3993 49.4495C49.2395 50.9958 47.0462 51.3094 45.4998 50.1497C43.9535 48.9899 43.64 46.7967 44.7996 45.2503L52.6004 34.8499H38.5994V58.8499C38.5994 60.7829 37.0324 62.3499 35.0994 62.3499C33.1665 62.3499 31.5994 60.7829 31.5994 58.8499ZM70.9999 54.9808C70.9999 54.935 71.0003 55.2557 71.5379 55.9983C72.0464 56.7006 72.8371 57.5028 73.8563 58.346C75.8915 60.0297 78.401 61.5178 80.0653 62.3499L82.0702 63.3528L81.9979 65.594C81.92 68.0105 82.0692 71.566 82.703 74.4056C83.0257 75.8515 83.4154 76.831 83.7665 77.3665C83.7947 77.4096 83.8208 77.4455 83.8431 77.476L83.8465 77.4808H97.9999V88.9808H122.698C122.641 86.4208 122.845 83.3922 123.515 80.261C124.592 75.2227 126.939 69.6261 131.658 65.3792C133.604 63.6281 135.758 60.3309 137.519 55.887C139.255 51.5073 140.498 46.2924 140.818 40.9583C141.465 30.2055 138.382 19.7485 129.139 13.9446C119.012 7.58593 110.112 6.21381 102.933 7.37333C95.7033 8.54128 89.9275 12.3232 86.1668 16.7474C83.2095 20.2266 81.2687 24.7029 80.0741 29.0364C78.8818 33.3613 78.4999 37.2983 78.4999 39.4808V40.6028L77.8475 41.5149C76.6674 43.1671 74.8786 45.9111 73.4022 48.6868C72.664 50.0746 72.0367 51.4104 71.6014 52.5823C71.1427 53.8174 70.9999 54.6037 70.9999 54.9808Z" fill="#1B1725"/>
<path d="M70.9999 54.9808C70.9999 54.935 71.0003 55.2557 71.5379 55.9983C72.0464 56.7006 72.8371 57.5028 73.8563 58.346C75.8915 60.0297 78.401 61.5178 80.0653 62.3499L82.0702 63.3528L81.9979 65.594C81.92 68.0105 82.0692 71.566 82.703 74.4056C83.0257 75.8515 83.4154 76.831 83.7665 77.3665C83.7947 77.4096 83.8208 77.4455 83.8431 77.476L83.8465 77.4808H97.9999V88.9808H122.698C122.641 86.4208 122.845 83.3922 123.515 80.261C124.592 75.2227 126.939 69.6261 131.658 65.3792C133.604 63.6281 135.758 60.3309 137.519 55.887C139.255 51.5073 140.498 46.2924 140.818 40.9583C141.465 30.2055 138.382 19.7485 129.139 13.9446C119.012 7.58593 110.112 6.21381 102.933 7.37333C95.7033 8.54128 89.9275 12.3232 86.1668 16.7474C83.2095 20.2266 81.2687 24.7029 80.0741 29.0364C78.8818 33.3613 78.4999 37.2983 78.4999 39.4808V40.6028L77.8475 41.5149C76.6674 43.1671 74.8786 45.9111 73.4022 48.6868C72.664 50.0746 72.0367 51.4104 71.6014 52.5823C71.1427 53.8174 70.9999 54.6037 70.9999 54.9808Z" fill="white"/>
<path d="M111.38 55.7649C110.734 55.8628 110.074 55.9153 109.404 55.9153C108.734 55.9153 108.075 55.8628 107.428 55.7649V57.3956C107.428 58.358 107.711 58.7755 107.927 58.9788C108.181 59.2184 108.736 59.5232 109.815 59.5232C110.353 59.5232 111 59.1703 111.158 58.9788L111.161 58.9748C111.337 58.7607 111.209 58.9164 111.168 58.9666C111.158 58.978 111.153 58.9839 111.158 58.9788L111.161 58.9748C111.163 58.9722 111.165 58.9694 111.168 58.9666C111.241 58.8765 111.38 58.6695 111.38 57.3956V55.7649ZM123.364 46.9268C124.18 45.5162 125.946 45.0589 127.307 45.9053L129.36 47.1819C130.721 48.0283 131.162 49.8579 130.345 51.2685C129.529 52.6791 127.763 53.1364 126.402 52.29L124.349 51.0134C122.988 50.1669 122.547 48.3374 123.364 46.9268ZM91.6929 45.2579C93.054 44.4117 94.8194 44.8688 95.6361 46.2793C96.4528 47.69 96.0109 49.5204 94.6497 50.3668L92.5967 51.6434C91.2356 52.4894 89.4701 52.0316 88.6535 50.6211C87.837 49.2104 88.2788 47.3808 89.6399 46.5345L91.6929 45.2579ZM130.126 37.1735C131.713 37.1737 133 38.5074 133 40.1523C133 41.7973 131.713 43.1308 130.126 43.131H127.672C126.085 43.1309 124.798 41.7973 124.798 40.1523C124.798 38.5074 126.085 37.1737 127.672 37.1735H130.126ZM91.3264 36.5269C92.9138 36.5269 94.2006 37.8606 94.2006 39.5057C94.2004 41.1506 92.9137 42.4844 91.3264 42.4844H88.874C87.2868 42.4844 86.0001 41.1506 85.9999 39.5057C85.9999 37.8606 87.2867 36.5269 88.874 36.5269H91.3264ZM124.01 26.994C125.136 25.8344 126.956 25.8397 128.075 27.0064C129.194 28.1733 129.188 30.0598 128.062 31.2194L126.211 33.1251C125.085 34.2847 123.266 34.2787 122.147 33.1118C121.028 31.9449 121.034 30.0593 122.16 28.8997L124.01 26.994ZM90.9246 26.3598C92.0436 25.1929 93.863 25.1869 94.9889 26.3465L96.8398 28.2523C97.9658 29.4119 97.9716 31.2983 96.8527 32.4652C95.7337 33.6321 93.9135 33.6373 92.7876 32.4777L90.9375 30.5719C89.8115 29.4123 89.8057 27.5267 90.9246 26.3598ZM117.616 41.0216C117.616 35.9833 113.842 32.0854 109.404 32.0854C104.966 32.0854 101.192 35.9833 101.192 41.0216C101.192 44.6084 103.126 47.6531 105.851 49.0802C106.3 49.3157 106.771 49.5071 107.26 49.6503C107.94 49.8502 108.659 49.9578 109.404 49.9579C110.149 49.9579 110.868 49.8502 111.548 49.6503C112.037 49.507 112.508 49.3158 112.958 49.0802C115.683 47.6531 117.616 44.6083 117.616 41.0216ZM123.364 41.0216C123.364 46.1705 120.907 50.7452 117.128 53.427V57.3956C117.128 59.3506 116.767 61.4714 115.411 63.117C113.974 64.8602 111.925 65.4807 109.815 65.4807C107.719 65.4807 105.643 64.8779 104.061 63.3871C102.44 61.8599 101.68 59.7232 101.68 57.3956V53.427C97.901 50.7451 95.4437 46.1704 95.4436 41.0216C95.4436 32.8991 101.596 26.128 109.404 26.1279C117.212 26.1279 123.364 32.8991 123.364 41.0216Z" fill="#1B1725"/>
<path d="M117.616 41.0216C117.616 35.9833 113.842 32.0854 109.404 32.0854C104.966 32.0854 101.192 35.9833 101.192 41.0216C101.192 44.6084 103.126 47.6531 105.851 49.0802C106.3 49.3157 106.771 49.5071 107.26 49.6503C107.94 49.8502 108.659 49.9578 109.404 49.9579C110.149 49.9579 110.868 49.8502 111.548 49.6503C112.037 49.507 112.508 49.3158 112.958 49.0802C115.683 47.6531 117.616 44.6083 117.616 41.0216Z" fill="#FFEB53"/>
<path d="M111.38 55.7649C110.734 55.8628 110.074 55.9153 109.404 55.9153C108.734 55.9153 108.075 55.8628 107.428 55.7649V57.3956C107.428 58.358 107.711 58.7755 107.927 58.9788C108.181 59.2184 108.736 59.5232 109.815 59.5232C110.353 59.5232 111 59.1703 111.158 58.9788L111.161 58.9748C111.163 58.9722 111.165 58.9694 111.168 58.9666C111.241 58.8765 111.38 58.6695 111.38 57.3956V55.7649Z" fill="#787FDC"/>
<path d="M46.0824 68.9439C37.0112 67.4785 26.4102 69.3566 15.0374 76.4976C2.78081 84.1937 -0.635563 97.7368 0.0930976 109.859C0.45998 115.962 1.87293 121.905 3.87142 126.947C5.84436 131.924 8.50368 136.314 11.5579 139.063C14.8388 142.016 16.6574 146.086 17.5384 150.206C18.4214 154.335 18.2956 158.222 17.9437 160.404L17.2894 164.461H56.8988V152.961H64.3988C67.1148 152.961 68.9344 151.29 69.9866 149.685C71.0116 148.122 71.6296 146.195 72.0277 144.412C72.6424 141.658 72.8757 138.57 72.9134 136.04C74.6578 135.04 76.6942 133.719 78.5052 132.221C79.7776 131.169 81.0495 129.939 82.0306 128.585C82.9825 127.27 83.8988 125.507 83.8988 123.461C83.8988 121.839 83.4166 120.125 82.8597 118.626C82.2793 117.063 81.5004 115.43 80.6761 113.88C79.2736 111.244 77.6449 108.675 76.3773 106.829C76.2693 104 75.7609 99.9674 74.5726 95.6568C73.2172 90.7403 70.9083 85.2156 67.0658 80.6949C62.3265 75.1192 55.1019 70.401 46.0824 68.9439ZM76.8988 123.461C76.8988 123.416 76.8983 123.736 76.3607 124.479C75.8522 125.181 75.0615 125.984 74.0423 126.827C72.0071 128.51 69.4976 129.998 67.8333 130.831L65.8284 131.834L65.9007 134.075C65.9786 136.491 65.8295 140.047 65.1956 142.886C64.8729 144.332 64.4832 145.312 64.1322 145.847C64.1039 145.89 64.0778 145.926 64.0555 145.957L64.0521 145.961H49.8988V157.461H25.2005C25.2576 154.901 25.0536 151.873 24.3841 148.742C23.3067 143.703 20.9593 138.107 16.2406 133.86C14.2949 132.109 12.1406 128.812 10.3792 124.368C8.64332 119.988 7.40105 114.773 7.0804 109.439C6.43404 98.6862 9.51689 88.2292 18.7601 82.4253C28.887 76.0667 37.7865 74.6945 44.9652 75.854C52.1953 77.022 57.9711 80.8039 61.7318 85.2281C64.6891 88.7073 66.6299 93.1836 67.8245 97.5171C69.0168 101.842 69.3988 105.779 69.3988 107.961V109.084L70.0511 109.996C71.2312 111.648 73.02 114.392 74.4964 117.168C75.2346 118.555 75.8619 119.891 76.2972 121.063C76.756 122.298 76.8988 123.084 76.8988 123.461Z" fill="#1B1725"/>
<path d="M76.8988 123.461C76.8988 123.416 76.8983 123.736 76.3607 124.479C75.8522 125.181 75.0615 125.984 74.0423 126.827C72.0071 128.51 69.4976 129.998 67.8333 130.831L65.8284 131.834L65.9007 134.075C65.9786 136.491 65.8295 140.047 65.1956 142.886C64.8729 144.332 64.4832 145.312 64.1322 145.847C64.1039 145.89 64.0778 145.926 64.0555 145.957L64.0521 145.961H49.8988V157.461H25.2005C25.2576 154.901 25.0536 151.873 24.3841 148.742C23.3067 143.703 20.9593 138.107 16.2406 133.86C14.2949 132.109 12.1406 128.812 10.3792 124.368C8.64332 119.988 7.40105 114.773 7.0804 109.439C6.43404 98.6862 9.51689 88.2292 18.7601 82.4253C28.887 76.0667 37.7865 74.6945 44.9652 75.854C52.1953 77.022 57.9711 80.8039 61.7318 85.2281C64.6891 88.7073 66.6299 93.1836 67.8245 97.5171C69.0168 101.842 69.3988 105.779 69.3988 107.961V109.084L70.0511 109.996C71.2312 111.648 73.02 114.392 74.4964 117.168C75.2346 118.555 75.8619 119.891 76.2972 121.063C76.756 122.298 76.8988 123.084 76.8988 123.461Z" fill="white"/>
<path d="M36.5186 124.246C37.1651 124.344 37.8248 124.396 38.4946 124.396C39.1644 124.396 39.8241 124.344 40.4706 124.246V125.876C40.4706 126.839 40.1875 127.256 39.9718 127.46C39.7176 127.699 39.1627 128.004 38.084 128.004C37.5458 128.004 36.8988 127.651 36.741 127.46L36.7377 127.456C36.5612 127.241 36.6895 127.397 36.7309 127.447C36.7403 127.459 36.7452 127.465 36.741 127.46L36.7377 127.456C36.7355 127.453 36.7332 127.45 36.7309 127.447C36.6574 127.357 36.5186 127.15 36.5186 125.876V124.246ZM24.535 115.407C23.7183 113.997 21.9529 113.54 20.5918 114.386L18.5388 115.663C17.1777 116.509 16.7365 118.339 17.5532 119.749C18.37 121.16 20.1353 121.617 21.4964 120.771L23.5494 119.494C24.9105 118.648 25.3517 116.818 24.535 115.407ZM56.2057 113.739C54.8446 112.892 53.0792 113.35 52.2625 114.76C51.4458 116.171 51.8877 118.001 53.2489 118.847L55.3019 120.124C56.663 120.97 58.4285 120.512 59.2451 119.102C60.0616 117.691 59.6198 115.862 58.2587 115.015L56.2057 113.739ZM17.773 105.654C16.1858 105.654 14.8989 106.988 14.8988 108.633C14.8988 110.278 16.1857 111.612 17.773 111.612H20.2261C21.8134 111.612 23.1003 110.278 23.1003 108.633C23.1002 106.988 21.8133 105.654 20.2261 105.654H17.773ZM56.5722 105.008C54.9848 105.008 53.698 106.341 53.698 107.986C53.6982 109.631 54.985 110.965 56.5722 110.965H59.0246C60.6118 110.965 61.8985 109.631 61.8988 107.986C61.8988 106.341 60.6119 105.008 59.0246 105.008H56.5722ZM23.8886 95.4747C22.7627 94.3151 20.9425 94.3204 19.8236 95.4871C18.7046 96.6541 18.7104 98.5405 19.8364 99.7001L21.6873 101.606C22.8133 102.765 24.6327 102.759 25.7516 101.593C26.8704 100.426 26.8647 98.54 25.7387 97.3804L23.8886 95.4747ZM56.974 94.8405C55.8551 93.6736 54.0356 93.6676 52.9097 94.8272L51.0588 96.733C49.9329 97.8926 49.927 99.779 51.0459 100.946C52.1649 102.113 53.9851 102.118 55.111 100.958L56.9611 99.0527C58.0871 97.893 58.0929 96.0074 56.974 94.8405ZM30.2826 109.502C30.2826 104.464 34.0569 100.566 38.4946 100.566C42.9323 100.566 46.7066 104.464 46.7066 109.502C46.7065 113.089 44.7728 116.134 42.048 117.561C41.5984 117.796 41.1272 117.988 40.639 118.131C39.9582 118.331 39.24 118.439 38.4946 118.439C37.7492 118.439 37.031 118.331 36.3502 118.131C35.8619 117.988 35.3901 117.796 34.9403 117.561C32.2157 116.134 30.2827 113.089 30.2826 109.502ZM24.5342 109.502C24.5343 114.651 26.9915 119.226 30.7702 121.908V125.876C30.7702 127.831 31.132 129.952 32.488 131.598C33.9245 133.341 35.9739 133.961 38.084 133.961C40.1799 133.961 42.2556 133.359 43.838 131.868C45.459 130.341 46.219 128.204 46.219 125.876V121.908C49.9976 119.226 52.4549 114.651 52.455 109.502C52.455 101.38 46.3023 94.6087 38.4946 94.6086C30.6869 94.6086 24.5342 101.38 24.5342 109.502Z" fill="#1B1725"/>
<path d="M30.2826 109.502C30.2826 104.464 34.0569 100.566 38.4946 100.566C42.9323 100.566 46.7066 104.464 46.7066 109.502C46.7065 113.089 44.7728 116.134 42.048 117.561C41.5984 117.796 41.1272 117.988 40.639 118.131C39.9582 118.331 39.24 118.439 38.4946 118.439C37.7492 118.439 37.031 118.331 36.3502 118.131C35.8619 117.988 35.3901 117.796 34.9403 117.561C32.2157 116.134 30.2827 113.089 30.2826 109.502Z" fill="#FFEB53"/>
<path d="M36.5186 124.246C37.1651 124.344 37.8248 124.396 38.4946 124.396C39.1644 124.396 39.8241 124.344 40.4706 124.246V125.876C40.4706 126.839 40.1875 127.256 39.9718 127.46C39.7176 127.699 39.1627 128.004 38.084 128.004C37.5458 128.004 36.8988 127.651 36.741 127.46L36.7377 127.456C36.7355 127.453 36.7332 127.45 36.7309 127.447C36.6574 127.357 36.5186 127.15 36.5186 125.876V124.246Z" fill="#787FDC"/>
<path d="M119.4 113.981V141.481C119.4 143.414 117.833 144.981 115.9 144.981H98.536L106.168 154.838C107.351 156.367 107.071 158.565 105.543 159.748C104.014 160.932 101.816 160.652 100.633 159.123L86.9998 141.514L100.6 123.381C101.76 121.835 103.953 121.521 105.5 122.681C107.046 123.841 107.36 126.034 106.2 127.58L98.3992 137.981H112.4V113.981C112.4 112.048 113.967 110.481 115.9 110.481C117.833 110.481 119.4 112.048 119.4 113.981Z" fill="#1B1725"/>
</svg>
