<svg id="Calque_1" data-name="Calque 1" xmlns="http://www.w3.org/2000/svg" viewBox="0 0 150 150"><defs><style>.cls-1{fill:#24969f;}.cls-2{fill:#fff;}</style></defs><path class="cls-1" d="M123.79,81c-2-9.08-7.47-18.3-16.08-26.74C89.17,36.12,53.82,24.94,55.32,25.75c7.33,3.93,7,14.38,4.75,22.22a25.22,25.22,0,0,1-3.72,8C49.11,65.2,29,69.92,25.88,87.87,24.66,95,21.28,122.78,54,124.29c-1.92-2.56-6.29-9.47-7.47-12.68a41.81,41.81,0,0,1,0-27.41,33,33,0,0,1,6.51-10.85,29.1,29.1,0,0,1,10-7.17,30.84,30.84,0,0,1,11.46-2.47c1.76-.05,1-.06,1.13-.06a31,31,0,0,1,12.66,2.53,28.75,28.75,0,0,1,9.91,7.24,35,35,0,0,1,6.58,10.92,39.89,39.89,0,0,1,0,27.2c-1.1,2.86-5.77,10.38-7.44,12.75,3.87-.69,13.57-7.09,18.5-12C124.83,103.34,126.2,92.06,123.79,81Z"/><path class="cls-2" d="M101.45,85.34a27.16,27.16,0,0,0-5.64-8.84,25.4,25.4,0,0,0-8.57-5.86,27.52,27.52,0,0,0-10.81-2.09,28.43,28.43,0,0,0-7.58,1,42.7,42.7,0,0,1,6.07,8.63c.5,0,1-.07,1.51-.07a16.52,16.52,0,0,1,6.76,1.35,15.47,15.47,0,0,1,5.29,3.86A18.71,18.71,0,0,1,92,89.17a21.36,21.36,0,0,1,0,14.51,18.82,18.82,0,0,1-3.51,5.83,15.47,15.47,0,0,1-5.29,3.86,17.47,17.47,0,0,1-13.47,0,15.4,15.4,0,0,1-5.33-3.82,17.64,17.64,0,0,1-3.47-5.83,22.2,22.2,0,0,1,0-14.63,17.77,17.77,0,0,1,2.1-4c.3-.43.61-.84.95-1.24a2.5,2.5,0,0,1,.24-.22l0,0c-2.5-4.07-2.37-4.18-6.1-8-.33.3-.68.59-1,.92a26.2,26.2,0,0,0-5.67,8.84,31.74,31.74,0,0,0,0,22.23A26,26,0,0,0,65.7,122.21a28.92,28.92,0,0,0,21.54,0,25.43,25.43,0,0,0,8.57-5.87,26.92,26.92,0,0,0,5.64-8.88,31.43,31.43,0,0,0,0-22.12Z"/><path class="cls-2" d="M79.34,93.32a4.14,4.14,0,0,1-4.11,3.73,4,4,0,0,1-1.14-.17,3.9,3.9,0,0,1-1.25-.6l-1.71-1.21a5.64,5.64,0,0,0-.19,1.35,5.53,5.53,0,0,0,1.62,3.88,5.46,5.46,0,0,0,7.72-7.72,4.73,4.73,0,0,0-.81-.67Z"/><path class="cls-2" d="M64.43,90.31A13.6,13.6,0,0,0,66.89,106a13.64,13.64,0,0,0,19.26.18,13.42,13.42,0,0,0,0-19.44,13.54,13.54,0,0,0-5.88-3.38l-.4,4.25a9.39,9.39,0,0,1,5.85,8.85,9.36,9.36,0,0,1-2.62,6.68,9.52,9.52,0,0,1-13.53.18,9.71,9.71,0,0,1-2.88-6.86,9.58,9.58,0,0,1,.85-3.9Z"/><path class="cls-2" d="M66.9,81.07c.77,1.27,2.37,4.19,2.44,4.3l-2.72,1.24a.74.74,0,0,0-.36,1,.76.76,0,0,0,.24.3l8.83,6.27s.79.11,1-.14a.64.64,0,0,0,.17-.39l1-10.77h0a.74.74,0,0,0-1-.74l-2.29,1.05s-1.61-3-2.45-4.38A122.88,122.88,0,0,0,63.5,68.55c-10-10.17-16.43-12.24-16.9-12.45A2.65,2.65,0,1,0,44.51,61c.1.05,6,1.89,15.22,11.29A107.51,107.51,0,0,1,66.9,81.07Z"/></svg>