<svg width="187" height="60" viewBox="0 0 187 60" fill="none" xmlns="http://www.w3.org/2000/svg">
<path d="M0 28.47H24.12V33.0099H5.69V40.9899H23.71V45.5799H5.69V58.7399H0V28.48V28.47Z" fill="#ffffff"/>
<path d="M29.25 28.47H34.94V58.7299H29.25V28.47Z" fill="#ffffff"/>
<path d="M39.11 53.09C39.11 49.28 41.59 47.08 48.65 46.21C51.81 45.8 54.2 45.38 54.2 43.28C54.2 41.63 52.96 40.39 50.12 40.39C46.77 40.39 45.76 42.41 45.81 44.15H40.17C39.94 40.99 43.01 36.72 49.89 36.72C58.05 36.72 59.84 40.98 59.84 44.47V58.73H54.2V55.47C53.74 57.3 51.17 59.28 46.77 59.28C41.86 59.28 39.11 56.8 39.11 53.09ZM54.28 50.0601V47.22C53.87 48 52.45 48.6 49.1 49.15C46.53 49.56 44.61 50.43 44.61 52.77C44.61 54.65 45.8 55.84 48.51 55.84C51.9 55.84 54.29 53.5901 54.29 50.0601H54.28Z" fill="#ffffff"/>
<path d="M84.87 41.4401C86.29 38.8301 88.81 36.8101 92.62 36.8101C100.46 36.8101 102.3 41.6701 102.3 45.9401V58.73H96.57V45.9401C96.57 42.8201 95.19 40.85 91.94 40.85C88.96 40.85 85.7 42.64 85.7 47.41V58.74H79.97V45.9501C79.97 42.8301 78.64 40.86 75.8 40.86C72.96 40.86 69.56 42.65 69.56 47.42V58.75H63.87V37.11H69.56V41.1901C70.34 38.4401 73.41 36.83 76.48 36.83C81.29 36.83 83.77 38.89 84.87 41.46V41.4401Z" fill="#ffffff"/>
<path d="M106.19 28.47H111.88V38.3299L111.56 41.7199C112.66 38.4199 115.05 36.5799 119.45 36.5799C126.24 36.5799 130.73 41.58 130.73 47.81C130.73 54.04 126.24 59.14 119.45 59.14C115.05 59.14 112.76 57.44 111.65 54.42L111.88 56.8V58.7299H106.24L106.19 28.47ZM124.76 47.82C124.76 43.65 122.42 40.67 118.43 40.67C114.44 40.67 111.51 43.24 111.51 47.82C111.51 52.4 114.31 55.07 118.43 55.07C122.55 55.07 124.76 52.04 124.76 47.82Z" fill="#ffffff"/>
<path d="M155.98 37.09H161.57L165.24 52.04L168.86 37.09H173.77L177.44 52.08L181.06 37.09H186.65L180.46 58.73H174.32L171.34 44.61L168.31 58.73H162.12L155.98 37.09Z" fill="#ffffff"/>
<path d="M148.31 59.7001C145.84 59.7001 143.5 59.07 141.43 57.84C139.06 58.06 136.49 57.88 133.79 57.27C129.01 56.2 125.61 53.36 124.23 49.28C122.32 43.64 124.44 36.58 130.04 29.91C132.19 27.35 134.52 25.16 136.78 23.04C140.97 19.11 144.58 15.72 144.58 12.01C144.58 9.33001 142.73 6.3 138.93 2.75L141.51 0C146.18 4.37 148.35 8.18001 148.35 12.01C148.35 17.35 143.98 21.45 139.36 25.8C137.18 27.84 134.93 29.96 132.93 32.34C128.26 37.9 126.35 43.78 127.8 48.08C128.76 50.91 131.11 52.82 134.61 53.6C135.5 53.8 136.37 53.94 137.21 54.04C133.96 49.75 133.01 44.05 134.93 39.85C136.53 36.34 139.84 34.41 144.26 34.41C148.68 34.41 152.48 36.43 154.19 39.96C156.02 43.74 155.31 48.57 152.39 52.26C151.18 53.79 149.7 55.0201 148 55.9401C149.13 55.9701 150.37 55.83 151.75 55.42C157.79 53.64 160.98 50.03 160.97 44.97C160.95 38 154.68 29.59 148.06 27.68L149.11 24.06C157.42 26.46 164.72 36.23 164.74 44.96C164.74 48.91 163.21 55.98 152.81 59.04C151.29 59.49 149.78 59.71 148.33 59.71L148.31 59.7001ZM144.25 38.1801C141.32 38.1801 139.33 39.27 138.35 41.41C136.95 44.49 137.96 49.2 140.71 52.37C141.12 52.85 141.67 53.39 142.34 53.91C145.29 53.38 147.73 52.03 149.41 49.91C151.41 47.39 151.96 44.04 150.77 41.6C149.7 39.4 147.38 38.1801 144.24 38.1801H144.25Z" fill="#787FDC"/>
</svg>
