<svg id="Calque_1" data-name="Calque 1" xmlns="http://www.w3.org/2000/svg" viewBox="0 0 350 150"><defs><style>.cls-1{fill:#24969f;}.cls-2{fill:#1d1d1b;}</style></defs><path class="cls-1" d="M292.85,75.15c-1.61-7.38-6.07-14.87-13.07-21.72C264.72,38.68,236,29.6,237.22,30.25c6,3.2,5.73,11.69,3.86,18.06a20.59,20.59,0,0,1-3,6.53c-5.88,7.46-22.26,11.3-24.75,25.89-1,5.78-3.74,28.35,22.85,29.58-1.56-2.08-5.11-7.69-6.07-10.3a33.92,33.92,0,0,1,0-22.27,27.18,27.18,0,0,1,5.29-8.82,23.64,23.64,0,0,1,8.11-5.81,25,25,0,0,1,9.31-2c1.43,0,.78,0,.92,0A25.13,25.13,0,0,1,264,63.11,23.43,23.43,0,0,1,272.05,69a28.87,28.87,0,0,1,5.35,8.87,32.44,32.44,0,0,1,0,22.1,79.74,79.74,0,0,1-6,10.36c3.14-.56,11-5.76,15-9.74C293.69,93.29,294.8,84.13,292.85,75.15Z"/><polygon class="cls-2" points="11.49 63.66 7.49 63.66 7.49 110.31 16.15 110.31 16.15 91.19 35.55 91.19 35.55 83.32 16.15 83.32 16.15 71.66 38.41 71.66 38.41 63.66 16.15 63.66 11.49 63.66"/><polygon class="cls-2" points="54.42 64.45 45.91 64.45 45.91 110.31 75.59 110.31 75.59 102.45 54.42 102.45 54.42 64.45"/><path class="cls-2" d="M98.13,64.45,80.24,110.31h8.52l4-10.48h18.34l4,10.48h8.85L106.12,64.45Zm-2.58,28,3-8c.3-.87.64-1.85,1-3s.75-2.23,1.15-3.4.76-2.32,1.11-3.41l.09-.29c.34,1.14.73,2.36,1.16,3.66s.84,2.57,1.21,3.7.66,2,.88,2.49l3.09,8.2Z"/><path class="cls-2" d="M153.49,87.79,139.14,64.45h-8v45.86h8.45V93.08q0-6.36-.3-11c-.07-1.16-.18-2.29-.3-3.42l12.13,19.17h4.32l12.49-19.27c-.13,1.29-.25,2.58-.33,3.88q-.3,4.71-.3,10.61v17.23h8.46V64.45H168Z"/><path class="cls-2" d="M219.08,87a13.55,13.55,0,0,0-3.34-1.73,9.7,9.7,0,0,0,3.74-2.89,10.16,10.16,0,0,0,2-6.42,11.62,11.62,0,0,0-1.61-6.25,9.8,9.8,0,0,0-4.72-3.9,19.55,19.55,0,0,0-7.63-1.31H188v45.86H208.2a22.06,22.06,0,0,0,6.49-.88,14.55,14.55,0,0,0,5-2.59,10.87,10.87,0,0,0,3.18-4.26,15,15,0,0,0,1.08-5.9,12,12,0,0,0-1.28-5.6A11.79,11.79,0,0,0,219.08,87ZM196.35,72.11h9.76a7.85,7.85,0,0,1,5.17,1.48,5,5,0,0,1,1.77,4.09,5.34,5.34,0,0,1-.78,2.89,5.52,5.52,0,0,1-2.2,2,7.18,7.18,0,0,1-3.31.72H196.35ZM214.46,99.8a5.49,5.49,0,0,1-2.55,2.13,10.38,10.38,0,0,1-4.1.72H196.35V90.59h11.13a11.55,11.55,0,0,1,4.2.69,5.89,5.89,0,0,1,2.72,2,5.22,5.22,0,0,1,.95,3.14A6.24,6.24,0,0,1,214.46,99.8Z"/><path class="cls-2" d="M333.66,64.45,325.6,91.38c-.3,1.13-.55,2.06-.75,2.78a16.77,16.77,0,0,0-.42,1.84c-.08.45-.16.92-.24,1.39-.2-.8-.42-1.61-.68-2.44-.35-1.12-.74-2.28-1.18-3.51l-7.54-19.79h-7.27l-7.73,19.79c-.26.75-.52,1.54-.75,2.39s-.52,1.92-.82,3.18c-.07.27-.14.57-.22.88,0-.22-.07-.42-.11-.65-.18-1-.37-2-.59-3s-.46-1.92-.72-2.75l-8.13-27.06h-8.91l14.29,45.86h6.22l10.74-26.82L322,110.31h6.16l14.35-45.86Z"/><path class="cls-2" d="M274.7,78.67a22.09,22.09,0,0,0-4.58-7.18,20.77,20.77,0,0,0-7-4.77A22.38,22.38,0,0,0,254.38,65a22.86,22.86,0,0,0-6.16.83,34.74,34.74,0,0,1,4.93,7c.4,0,.81,0,1.23,0a13.41,13.41,0,0,1,5.48,1.09,12.48,12.48,0,0,1,4.3,3.14A15.29,15.29,0,0,1,267,81.78a17.23,17.23,0,0,1,0,11.79,15.36,15.36,0,0,1-2.85,4.73,12.35,12.35,0,0,1-4.3,3.14,14.15,14.15,0,0,1-10.94,0,12.55,12.55,0,0,1-4.33-3.11,14.27,14.27,0,0,1-2.82-4.73,18.17,18.17,0,0,1,0-11.89,14.58,14.58,0,0,1,1.71-3.28c.24-.34.5-.68.77-1a1.84,1.84,0,0,1,.2-.19l0,0a24.24,24.24,0,0,0-5-6.5c-.27.25-.55.48-.81.75a21.44,21.44,0,0,0-4.61,7.18,25.83,25.83,0,0,0,0,18.06,21.13,21.13,0,0,0,11.61,11.92,22.15,22.15,0,0,0,8.72,1.69,22.38,22.38,0,0,0,8.78-1.69,20.77,20.77,0,0,0,7-4.77,22,22,0,0,0,4.58-7.21,25.58,25.58,0,0,0,0-18Z"/><path class="cls-2" d="M256.74,85.15a3.38,3.38,0,0,1-3.34,3,3.51,3.51,0,0,1-1.94-.62l-1.39-1a4.57,4.57,0,0,0-.16,1.1,4.44,4.44,0,0,0,7.59,3.13,4.45,4.45,0,0,0,0-6.25,3.86,3.86,0,0,0-.66-.55Z"/><path class="cls-2" d="M244.63,82.71a11,11,0,0,0,2,12.71,11.09,11.09,0,0,0,15.64.15,10.91,10.91,0,0,0,0-15.8A11.11,11.11,0,0,0,257.5,77l-.32,3.46a7.79,7.79,0,0,1,2.61,1.77,7.95,7.95,0,0,1,0,10.84,7.74,7.74,0,0,1-11,.15,7.76,7.76,0,0,1-1.64-8.74Z"/><path class="cls-2" d="M246.63,75.2c.63,1,1.93,3.4,2,3.49l-2.2,1a.59.59,0,0,0-.3.79.64.64,0,0,0,.2.24l7.17,5.1s.64.08.81-.12a.54.54,0,0,0,.13-.31l.83-8.76h0a.59.59,0,0,0-.84-.6l-1.87.85s-1.31-2.4-2-3.56a96.94,96.94,0,0,0-6.68-8.3c-8.13-8.27-13.35-10-13.73-10.11a2.15,2.15,0,0,0-1.7,3.95c.08,0,4.85,1.54,12.36,9.18A83.91,83.91,0,0,1,246.63,75.2Z"/></svg>