<svg xmlns="http://www.w3.org/2000/svg" viewBox="0 0 312.74 115.73"><defs><style>.cls-1{fill:#00a6a6;}.cls-2{fill:#1d1d1b;}</style></defs><g id="Calque_3" data-name="Calque 3"><path class="cls-1" d="M260.29,62.17c-1.42-6.51-5.36-13.11-11.53-19.15-13.27-13-38.6-21-37.52-20.44,5.25,2.82,5,10.3,3.4,15.92A18.18,18.18,0,0,1,212,44.26c-5.19,6.58-19.63,10-21.83,22.83-.87,5.1-3.3,25,20.15,26.09A54.54,54.54,0,0,1,205,84.09a29.88,29.88,0,0,1,0-19.64,23.75,23.75,0,0,1,4.66-7.77,20.89,20.89,0,0,1,7.15-5.13A22.1,22.1,0,0,1,225,49.77c1.26,0,.69,0,.81,0a22.13,22.13,0,0,1,9.07,1.81,20.73,20.73,0,0,1,7.1,5.18,25.32,25.32,0,0,1,4.71,7.83,28.59,28.59,0,0,1,0,19.48,70,70,0,0,1-5.33,9.14c2.77-.5,9.72-5.09,13.25-8.6C261,78.17,262,70.09,260.29,62.17Z"/><polygon class="cls-2" points="12.18 52.04 8.66 52.04 8.66 93.18 16.3 93.18 16.3 76.31 33.4 76.31 33.4 69.38 16.3 69.38 16.3 59.09 35.92 59.09 35.92 52.04 16.3 52.04 12.18 52.04"/><polygon class="cls-2" points="50.04 52.73 42.53 52.73 42.53 93.18 68.7 93.18 68.7 86.24 50.04 86.24 50.04 52.73"/><path class="cls-2" d="M88.58,52.73,72.81,93.18h7.51l3.51-9.25H100l3.49,9.25h7.8L95.63,52.73ZM86.31,77.4l2.67-7c.27-.77.57-1.64.9-2.6s.67-2,1-3,.68-2,1-3c0-.09.06-.17.08-.25.31,1,.64,2.07,1,3.22S93.71,67,94,68s.59,1.73.78,2.19l2.72,7.22Z"/><path class="cls-2" d="M137.4,73.32,124.75,52.73h-7.11V93.18h7.46V78q0-5.6-.26-9.68c-.07-1-.17-2-.27-3l10.7,16.91h3.81l11-17c-.11,1.14-.22,2.28-.29,3.42-.18,2.78-.26,5.9-.26,9.36v15.2H157V52.73h-6.76Z"/><path class="cls-2" d="M195.24,72.58a11.89,11.89,0,0,0-2.94-1.53,8.68,8.68,0,0,0,3.29-2.54,9,9,0,0,0,1.79-5.67A10.2,10.2,0,0,0,196,57.33a8.69,8.69,0,0,0-4.16-3.44,17.35,17.35,0,0,0-6.73-1.16H167.85V93.18h17.8a19.49,19.49,0,0,0,5.72-.78,12.89,12.89,0,0,0,4.39-2.28,9.61,9.61,0,0,0,2.8-3.76,13.18,13.18,0,0,0,1-5.2,10.55,10.55,0,0,0-1.13-4.94A10.38,10.38,0,0,0,195.24,72.58ZM175.19,59.49h8.61a7,7,0,0,1,4.56,1.3,4.42,4.42,0,0,1,1.56,3.61,4.68,4.68,0,0,1-.69,2.55,4.84,4.84,0,0,1-1.93,1.73,6.41,6.41,0,0,1-2.92.64h-9.19Zm16,24.41a4.79,4.79,0,0,1-2.26,1.88,9,9,0,0,1-3.61.64H175.19V75.79H185a10.29,10.29,0,0,1,3.7.6,5.26,5.26,0,0,1,2.4,1.77,4.57,4.57,0,0,1,.84,2.77A5.46,5.46,0,0,1,191.17,83.9Z"/><path class="cls-2" d="M296.28,52.73l-7.11,23.75-.66,2.46c-.17.63-.3,1.17-.38,1.61l-.21,1.24q-.26-1.07-.6-2.16c-.31-1-.65-2-1-3.09l-6.64-17.45h-6.41l-6.82,17.45c-.23.65-.46,1.36-.67,2.11s-.45,1.68-.72,2.8l-.19.78c0-.2-.06-.38-.1-.58-.15-.87-.33-1.74-.52-2.63s-.4-1.69-.63-2.42l-7.17-23.87h-7.86l12.6,40.45h5.49l9.47-23.66L286,93.18h5.43l12.65-40.45Z"/><path class="cls-2" d="M244.28,65.28a19.3,19.3,0,0,0-4-6.34,18.41,18.41,0,0,0-6.13-4.2,19.68,19.68,0,0,0-7.75-1.49,20.46,20.46,0,0,0-5.43.72,30.89,30.89,0,0,1,4.35,6.19c.35,0,.71-.06,1.08-.06a11.88,11.88,0,0,1,4.84,1A11,11,0,0,1,235,63.84,13.51,13.51,0,0,1,237.51,68a15.31,15.31,0,0,1,0,10.4A13.45,13.45,0,0,1,235,82.59a10.87,10.87,0,0,1-3.79,2.76,12.49,12.49,0,0,1-9.65,0,11.09,11.09,0,0,1-3.82-2.74,12.62,12.62,0,0,1-2.48-4.17,15.87,15.87,0,0,1,0-10.48,13,13,0,0,1,1.5-2.89c.22-.31.44-.61.68-.89a1.37,1.37,0,0,1,.18-.16l0,0a21.16,21.16,0,0,0-4.37-5.73c-.24.22-.48.42-.71.66a18.67,18.67,0,0,0-4.07,6.33,22.9,22.9,0,0,0,0,15.93,18.87,18.87,0,0,0,4.07,6.33,18.49,18.49,0,0,0,6.17,4.17,19.45,19.45,0,0,0,7.68,1.5,19.69,19.69,0,0,0,7.75-1.5,18.12,18.12,0,0,0,6.13-4.2,19.18,19.18,0,0,0,4-6.36,22.5,22.5,0,0,0,0-15.84Z"/><path class="cls-2" d="M228.44,71a3,3,0,0,1-2.94,2.67,2.86,2.86,0,0,1-.82-.12,2.72,2.72,0,0,1-.89-.43l-1.22-.87a3.57,3.57,0,0,0-.15,1A4,4,0,0,0,223.59,76a3.91,3.91,0,0,0,5.53-5.53,3.79,3.79,0,0,0-.58-.48Z"/><path class="cls-2" d="M217.77,68.83a9.57,9.57,0,0,0-1,4.38,9.7,9.7,0,0,0,2.8,6.84,9.79,9.79,0,0,0,13.8.13,9.74,9.74,0,0,0-4.21-16.36l-.29,3.05a6.89,6.89,0,0,1,2.31,1.56,7,7,0,0,1,0,9.56,6.82,6.82,0,0,1-9.7.13,6.94,6.94,0,0,1-2.06-4.91,6.87,6.87,0,0,1,.61-2.79Z"/><path class="cls-2" d="M219.54,62.21c.55.91,1.69,3,1.74,3.08l-1.94.89a.54.54,0,0,0-.27.7.6.6,0,0,0,.18.21l6.32,4.5s.57.07.71-.1a.47.47,0,0,0,.12-.28l.73-7.72h0a.52.52,0,0,0-.74-.53l-1.64.76s-1.16-2.13-1.76-3.14a86.27,86.27,0,0,0-5.89-7.32C209.93,46,205.33,44.47,205,44.33a1.89,1.89,0,0,0-1.5,3.48c.07,0,4.28,1.36,10.9,8.1A75.14,75.14,0,0,1,219.54,62.21Z"/></g></svg>