<svg xmlns="http://www.w3.org/2000/svg" viewBox="0 0 84.67 84.67"><defs><style>.cls-1{fill:#00a6a6;}.cls-2{fill:#1d1d1b;}</style></defs><g id="Calque_3" data-name="Calque 3"><path class="cls-1" d="M77.29,46.64c-1.42-6.5-5.36-13.11-11.53-19.15-13.27-13-38.6-21-37.52-20.44,5.25,2.82,5.05,10.31,3.4,15.92A18.18,18.18,0,0,1,29,28.73c-5.19,6.58-19.63,10-21.83,22.83-.87,5.1-3.3,25,20.15,26.09A54.54,54.54,0,0,1,22,68.56a28,28,0,0,1-1.66-9.79A28,28,0,0,1,22,48.92a23.75,23.75,0,0,1,4.66-7.77A20.89,20.89,0,0,1,33.76,36,22.1,22.1,0,0,1,42,34.24c1.26,0,.69,0,.81,0A22.13,22.13,0,0,1,51.85,36,20.73,20.73,0,0,1,59,41.2,25.32,25.32,0,0,1,63.66,49a28.59,28.59,0,0,1,0,19.48,70,70,0,0,1-5.33,9.14c2.77-.5,9.72-5.08,13.25-8.6C78,62.64,79,54.56,77.29,46.64Z"/><path class="cls-2" d="M61.28,49.75a19.3,19.3,0,0,0-4-6.34,18.41,18.41,0,0,0-6.13-4.2,19.72,19.72,0,0,0-7.75-1.49,20.06,20.06,0,0,0-5.43.73,30.54,30.54,0,0,1,4.35,6.18c.35,0,.71-.06,1.08-.06a11.92,11.92,0,0,1,4.84,1A11,11,0,0,1,52,48.31a13.51,13.51,0,0,1,2.52,4.17,15.31,15.31,0,0,1,0,10.4A13.45,13.45,0,0,1,52,67.06a10.87,10.87,0,0,1-3.79,2.76,12.49,12.49,0,0,1-9.65,0,11,11,0,0,1-3.82-2.74,12.46,12.46,0,0,1-2.48-4.17,15.87,15.87,0,0,1,0-10.48,13,13,0,0,1,1.5-2.89c.22-.31.44-.61.68-.89a1.37,1.37,0,0,1,.18-.16l0,0a21.16,21.16,0,0,0-4.37-5.73c-.24.22-.48.42-.71.66a18.67,18.67,0,0,0-4.07,6.33,22.75,22.75,0,0,0,0,15.93A18.69,18.69,0,0,0,35.67,76.16a20.74,20.74,0,0,0,15.44,0A18.29,18.29,0,0,0,57.24,72a19.18,19.18,0,0,0,4-6.36,22.5,22.5,0,0,0,0-15.84Z"/><path class="cls-2" d="M45.44,55.46a3,3,0,0,1-2.94,2.67,2.86,2.86,0,0,1-.82-.12,2.72,2.72,0,0,1-.89-.43l-1.22-.87a3.57,3.57,0,0,0-.15,1,4,4,0,0,0,1.17,2.78,3.91,3.91,0,0,0,5.53-5.53,3.79,3.79,0,0,0-.58-.48Z"/><path class="cls-2" d="M34.77,53.3a9.7,9.7,0,0,0,1.76,11.22,9.79,9.79,0,0,0,13.8.13,9.74,9.74,0,0,0-4.21-16.36l-.29,3.05a6.89,6.89,0,0,1,2.31,1.56,7,7,0,0,1,0,9.57,6.83,6.83,0,0,1-9.7.12,6.94,6.94,0,0,1-2.06-4.91A6.87,6.87,0,0,1,37,54.89Z"/><path class="cls-2" d="M36.54,46.68c.55.91,1.69,3,1.74,3.08l-1.94.89a.54.54,0,0,0-.27.7.6.6,0,0,0,.18.21l6.32,4.5s.57.07.71-.1a.47.47,0,0,0,.12-.28L44.13,48h0a.52.52,0,0,0-.74-.53l-1.65.76S40.59,46.06,40,45a86.27,86.27,0,0,0-5.89-7.32C26.93,30.43,22.33,28.94,22,28.8a1.89,1.89,0,0,0-1.5,3.48c.07,0,4.28,1.36,10.9,8.1A75.14,75.14,0,0,1,36.54,46.68Z"/></g></svg>