<svg width="106" height="144" viewBox="0 0 106 144" fill="none" xmlns="http://www.w3.org/2000/svg">
<path d="M32 13.5C32 9.91015 29.0899 7 25.5 7C21.9101 7 19 9.91015 19 13.5C19 17.0899 21.9101 20 25.5 20C29.0899 20 32 17.0899 32 13.5Z" fill="white"/>
<path fill-rule="evenodd" clip-rule="evenodd" d="M13.3426 142.736C15.2783 142.777 17.427 142.339 19.6307 141.64C23.3619 140.456 27.8255 138.334 32.7339 135.5C32.9635 135.367 33.1941 135.233 33.4256 135.098C33.6031 135.233 33.7816 135.367 33.9612 135.5C41.1846 140.839 50.1233 144 59.7937 144C69.4682 144 78.4051 140.842 85.6295 135.5C96.3453 127.577 103.294 114.85 103.294 100.5C103.294 92.418 101.086 84.8432 97.241 78.3545C100.327 74.1726 102.711 70.3113 104.137 67.001C104.957 65.0988 105.544 63.1919 105.674 61.3994C105.804 59.5962 105.485 57.5411 104.038 55.8906C102.499 54.1352 100.347 53.586 98.4432 53.5322C96.5353 53.4784 94.4223 53.8947 92.2605 54.5664C88.326 55.7891 83.5677 58.0712 78.3299 61.1367C72.7032 58.4829 66.4174 57.0001 59.7937 57C55.2576 57 50.8836 57.6944 46.7722 58.9825C46.9218 58.1778 47 57.348 47 56.5V35.5C47 28.8366 42.1723 23.3007 35.8238 22.1992C37.8056 19.8497 39 16.8144 39 13.5C39 6.04416 32.9558 0 25.5 0C18.0442 0 12 6.04416 12 13.5C12 20.1634 16.8277 25.6993 23.1762 26.8008C21.1944 29.1503 20 32.1856 20 35.5V44H13.5498C6.09656 44 0.0540253 50.0399 0.0498047 57.4922L0 80.4922V80.5C0 87.9558 6.04416 94 13.5 94C14.653 94 15.7723 93.8555 16.8406 93.5835C16.4807 95.836 16.2938 98.1462 16.2937 100.5C16.2937 104.894 16.9473 109.142 18.1629 113.147C13.8011 118.502 10.4033 123.444 8.33965 127.595C7.21909 129.848 6.39385 132.059 6.10918 134.092C6.04575 134.545 6.00596 135.018 6.00141 135.5C5.98584 137.153 6.38405 138.917 7.66289 140.376C9.22412 142.157 11.4151 142.696 13.3426 142.736ZM92.5301 84.3408C94.9387 89.2101 96.2937 94.6936 96.2937 100.5C96.2937 117.049 85.2804 131.025 70.1834 135.5C66.8905 136.476 63.4033 137 59.7937 137C56.1826 137 52.6953 136.476 49.4027 135.5C45.9885 134.488 42.7836 132.99 39.867 131.085C48.0875 125.692 57.3247 118.644 66.658 110.462C76.9415 101.447 85.854 92.3646 92.5301 84.3408ZM14.6072 130.711C16.001 127.908 18.2263 124.479 21.202 120.589C23.0249 124.084 25.3074 127.3 27.9695 130.155C23.8555 132.458 20.3167 134.078 17.5145 134.967C16.7688 135.203 16.108 135.378 15.5285 135.5C14.6764 135.68 14.0002 135.748 13.4891 135.737C13.2716 135.733 13.1131 135.715 13.0018 135.695C12.9995 135.641 12.999 135.577 13.0016 135.5C13.0056 135.383 13.0171 135.239 13.0418 135.063C13.1787 134.085 13.6476 132.641 14.6072 130.711ZM94.3377 61.252C96.1328 60.6941 97.4177 60.506 98.2459 60.5293C98.4448 60.5349 98.5917 60.5514 98.6971 60.5694C98.7002 60.6518 98.702 60.759 98.6922 60.8955C98.6413 61.6017 98.3696 62.7003 97.7098 64.2315C96.7541 66.4489 95.155 69.184 92.9461 72.3379C90.6886 69.6828 88.1185 67.3017 85.2908 65.253C88.8191 63.3605 91.8729 62.018 94.3377 61.252ZM25.3865 112.717C24.032 108.902 23.2937 104.791 23.2937 100.5C23.2938 80.3417 39.6354 64 59.7937 64C65.9573 64.0001 71.7547 65.5247 76.8387 68.2149C81.4261 70.6423 85.435 74.0215 88.6033 78.0879C82.1018 86.1641 72.9079 95.6744 62.0437 105.198C52.1674 113.856 42.4765 121.15 34.1336 126.457C30.2621 122.63 27.2433 117.946 25.3865 112.717ZM25.5 7C29.0899 7 32 9.91015 32 13.5C32 17.0899 29.0899 20 25.5 20C21.9101 20 19 17.0899 19 13.5C19 9.91015 21.9101 7 25.5 7ZM33.5 29C37.0899 29 40 31.9101 40 35.5V56.5C40 60.0899 37.0899 63 33.5 63H20V80.5C20 84.0899 17.0899 87 13.5 87C9.91275 87 7.00422 84.0941 7 80.5078L7.0498 57.5078V57.5C7.0498 53.9101 9.95995 51 13.5498 51H27V35.5C27 31.9101 29.9101 29 33.5 29ZM27 71.9191V70H28.7777L27 71.9191Z" fill="#1B1725"/>
<path d="M40 35.5C40 31.9101 37.0899 29 33.5 29C29.9101 29 27 31.9101 27 35.5V51H13.5498C9.95995 51 7.0498 53.9101 7.0498 57.5V57.5078L7 80.5078C7.00422 84.0941 9.91275 87 13.5 87C17.0899 87 20 84.0899 20 80.5V63H33.5C37.0899 63 40 60.0899 40 56.5V35.5Z" fill="white"/>
<path d="M23.2937 100.5C23.2937 104.791 24.032 108.902 25.3865 112.717C27.2433 117.946 30.2621 122.63 34.1336 126.457C42.4765 121.15 52.1674 113.856 62.0437 105.198C72.9079 95.6744 82.1018 86.1641 88.6033 78.0879C85.435 74.0215 81.4261 70.6423 76.8387 68.2149C71.7547 65.5247 65.9573 64.0001 59.7937 64C39.6354 64 23.2938 80.3417 23.2937 100.5Z" fill="#787FDC"/>
<path fill-rule="evenodd" clip-rule="evenodd" d="M25.5 7C29.0899 7 32 9.91015 32 13.5C32 17.0899 29.0899 20 25.5 20C21.9101 20 19 17.0899 19 13.5C19 9.91015 21.9101 7 25.5 7ZM27 71.9191L28.7777 70C28.1663 70.6217 27.5734 71.2617 27 71.9191ZM33.4256 135.098C33.6031 135.233 33.7816 135.367 33.9612 135.5H32.7339C32.9635 135.367 33.1941 135.233 33.4256 135.098Z" fill="white"/>
<path d="M96.2937 100.5C96.2937 94.6936 94.9387 89.2101 92.5301 84.3408C85.854 92.3646 76.9415 101.447 66.658 110.462C57.3247 118.644 48.0875 125.692 39.867 131.085C42.7836 132.99 45.9885 134.488 49.4027 135.5C52.6953 136.476 56.1826 137 59.7937 137C63.4033 137 66.8905 136.476 70.1834 135.5C85.2804 131.025 96.2937 117.049 96.2937 100.5Z" fill="#787FDC"/>
</svg>
