<svg width="102" height="137" viewBox="0 0 102 137" fill="none" xmlns="http://www.w3.org/2000/svg">
<path d="M32.142 21C25.742 21 24.142 25.3333 24.142 27.5V46.5C24.142 47.3 22.8087 47.5 22.142 47.5H12.642C8.242 47.5 6.47534 50.1667 6.142 51.5C5.97534 59 5.742 74.7 6.142 77.5C6.642 81 9.642 82 12.642 82C15.042 82 16.642 79 17.142 77.5V65C17.142 59.8 20.642 60 22.642 60H30.142C37.742 60 40.3087 55 40.642 52.5V27.5C40.4753 25.3333 38.542 21 32.142 21Z" stroke="#1B1725" stroke-width="3"/>
<circle cx="16.642" cy="10" r="8.5" stroke="#1B1725" stroke-width="3"/>
<path d="M85.8624 82.8624C90.9824 102.116 79.5246 121.875 60.2705 126.995C41.0165 132.115 21.2576 120.657 16.1376 101.403C11.0176 82.1494 22.4755 62.3905 41.7295 57.2705C60.9835 52.1505 80.7424 63.6084 85.8624 82.8624Z" stroke="#1B1725" stroke-width="3"/>
<path d="M69.557 59.8489C77.8427 55.8963 84.4392 54.8989 87.4788 57.7782C93.7514 63.7193 82.5042 83.9166 62.3574 102.89C42.2106 121.864 20.7936 132.429 14.5211 126.488C11.2133 123.355 12.778 116.257 17.951 107.464" stroke="#1B1725" stroke-width="3"/>
</svg>
