<svg width="350" height="291" viewBox="0 0 350 291" fill="none" xmlns="http://www.w3.org/2000/svg">
<path d="M145.195 195.941C145.195 196.625 145.469 197.309 145.469 197.855C145.469 200.453 143.145 202.777 140.547 202.777H132.344V219.867C132.344 232.992 121.543 243.793 108.418 243.793H98.8477V258.695C112.52 266.762 125.918 278.52 137.266 290.277H4.37499C9.16015 278.246 19.8242 265.805 33.6328 257.602V208.793C19.5508 197.719 10.3906 180.219 10.3906 160.941C10.3906 160.395 10.3906 159.574 10.3906 158.48H132.07C132.207 160.805 132.207 162.582 132.207 162.582L145.195 195.941ZM350 149.73H207.812V145.902C207.812 113.363 229.687 85.8828 259.902 76.9961V48.6953H274.668C273.711 27.7773 256.348 10.9609 235.293 10.9609C213.691 10.9609 195.918 28.5977 195.918 50.3359L195.645 96.1367C195.508 107.621 186.484 117.055 175.273 117.055C164.199 117.055 155.039 107.758 154.902 96.2734V50.3359C154.902 28.7344 137.266 10.9609 115.527 10.9609C94.1992 10.9609 77.2461 27.6406 76.1523 48.6953H90.918V77.2695C120.449 85.7461 142.324 113.363 142.324 145.766V149.594H-0.273438V145.082C-0.273438 112.68 21.3281 85.0625 51.1328 76.5859V48.4219H65.8984C66.582 22.1719 88.1836 0.84375 115.117 0.84375C142.324 0.84375 164.336 23.1289 164.336 50.0625V96C164.336 102.426 169.258 107.621 175.137 107.621C181.016 107.621 185.938 102.426 185.938 96L185.801 50.3359C185.801 23.1289 208.086 1.11719 235.02 1.11719C261.953 1.11719 283.555 22.4453 284.238 48.6953H299.004V76.9961C328.535 85.4727 350.41 113.09 350.137 145.492L350 149.73ZM61.6601 58.5391V85.1992C34.1797 89.4375 12.4414 112.68 10.2539 140.844H132.48V140.16C130.156 111.996 108.555 89.0273 81.0742 84.7891V58.5391H61.6601ZM340.43 140.57C338.105 112.406 316.504 89.1641 289.023 84.9258V58.5391H269.336V85.1992C241.992 89.4375 220.391 112.27 217.93 140.57H340.43ZM316.23 257.465V209.066C330.312 197.992 339.473 180.492 339.473 161.215C339.473 160.668 339.473 159.711 339.473 158.48H218.066C217.93 160.805 217.93 162.582 217.93 162.582L205.215 195.668C204.941 195.941 204.941 197.035 204.941 197.582C204.941 200.18 207.266 202.504 209.863 202.504H217.793V219.594C217.793 232.719 228.594 243.52 241.719 243.52H251.289V258.285C236.66 266.488 221.895 278.383 210.41 290.414H346.172C340.977 278.109 330.176 265.668 316.23 257.465Z" fill="white"/>
</svg>
